<svg width="205" height="78" viewBox="0 0 205 78" fill="none" xmlns="http://www.w3.org/2000/svg">
<path d="M11.4785 15.9141L15.6621 7.40625H22.7109L15.5566 20.0977L22.9043 33H15.7852L11.4785 24.334L7.17188 33H0.0703125L7.40039 20.0977L0.263672 7.40625H7.29492L11.4785 15.9141ZM35.3672 33C35.1562 32.6133 34.9688 32.0449 34.8047 31.2949C33.7148 32.666 32.1914 33.3516 30.2344 33.3516C28.4414 33.3516 26.918 32.8125 25.6641 31.7344C24.4102 30.6445 23.7832 29.2793 23.7832 27.6387C23.7832 25.5762 24.5449 24.0176 26.0684 22.9629C27.5918 21.9082 29.8066 21.3809 32.7129 21.3809H34.541V20.3789C34.541 18.6328 33.7852 17.7598 32.2734 17.7598C30.8672 17.7598 30.1641 18.4512 30.1641 19.834H24.2402C24.2402 17.9941 25.0195 16.5 26.5781 15.3516C28.1484 14.2031 30.1465 13.6289 32.5723 13.6289C34.998 13.6289 36.9141 14.2207 38.3203 15.4043C39.7266 16.5879 40.4473 18.2109 40.4824 20.2734V28.6934C40.5059 30.4395 40.7754 31.7754 41.291 32.7012V33H35.3672ZM31.6582 29.1328C32.3965 29.1328 33.0059 28.9746 33.4863 28.6582C33.9785 28.3418 34.3301 27.9844 34.541 27.5859V24.5449H32.8184C30.7559 24.5449 29.7246 25.4707 29.7246 27.3223C29.7246 27.8613 29.9062 28.3008 30.2695 28.6406C30.6328 28.9688 31.0957 29.1328 31.6582 29.1328ZM61.4355 23.6309C61.4355 26.584 60.7676 28.9453 59.4316 30.7148C58.1074 32.4727 56.3145 33.3516 54.0527 33.3516C52.3066 33.3516 50.8711 32.7129 49.7461 31.4355V40.3125H43.8223V13.9805H49.3594L49.5352 15.7383C50.6719 14.332 52.166 13.6289 54.0176 13.6289C56.3613 13.6289 58.1836 14.4961 59.4844 16.2305C60.7852 17.9531 61.4355 20.3262 61.4355 23.3496V23.6309ZM55.5117 23.2617C55.5117 19.8867 54.5273 18.1992 52.5586 18.1992C51.1523 18.1992 50.2148 18.7031 49.7461 19.7109V27.1992C50.2617 28.2539 51.2109 28.7812 52.5938 28.7812C54.4805 28.7812 55.4531 27.1523 55.5117 23.8945V23.2617ZM70.0664 19.2012H73.1074C74.8652 19.2012 76.4121 19.4883 77.748 20.0625C79.084 20.6367 80.1035 21.4512 80.8066 22.5059C81.5098 23.5605 81.8613 24.7852 81.8613 26.1797C81.8613 28.2305 81.0645 29.8828 79.4707 31.1367C77.8887 32.3789 75.7266 33 72.9844 33H64.1074V13.9805H70.0664V19.2012ZM70.0664 23.7539V28.4648H73.0723C73.9746 28.4648 74.6777 28.2598 75.1816 27.8496C75.6973 27.4277 75.9551 26.8594 75.9551 26.1445C75.9551 25.4414 75.7266 24.8672 75.2695 24.4219C74.8125 23.9766 74.0801 23.7539 73.0723 23.7539H70.0664ZM92.1797 26.3555H90.4043V33H84.4629V13.9805H90.4043V20.8184H92.1094L95.1328 13.9805H102.727L97.1719 22.7695H97.1895L103.289 33H95.2559L92.1797 26.3555ZM102.938 23.3145C102.938 21.416 103.307 19.7285 104.045 18.252C104.783 16.7637 105.844 15.6211 107.227 14.8242C108.609 14.0273 110.232 13.6289 112.096 13.6289C114.943 13.6289 117.188 14.5137 118.828 16.2832C120.469 18.041 121.289 20.4375 121.289 23.4727V23.6836C121.289 26.6484 120.463 29.0039 118.811 30.75C117.17 32.4844 114.943 33.3516 112.131 33.3516C109.424 33.3516 107.25 32.543 105.609 30.9258C103.969 29.2969 103.084 27.0938 102.955 24.3164L102.938 23.3145ZM108.861 23.6836C108.861 25.4414 109.137 26.7305 109.688 27.5508C110.238 28.3711 111.053 28.7812 112.131 28.7812C114.24 28.7812 115.318 27.1582 115.365 23.9121V23.3145C115.365 19.9043 114.275 18.1992 112.096 18.1992C110.115 18.1992 109.043 19.6699 108.879 22.6113L108.861 23.6836ZM124.295 33V13.9805H132.451C135.064 13.9805 137.062 14.4375 138.445 15.3516C139.84 16.2656 140.537 17.584 140.537 19.3066C140.537 20.1855 140.232 20.9766 139.623 21.6797C139.014 22.3711 138.123 22.9043 136.951 23.2793C138.463 23.5371 139.629 24.041 140.449 24.791C141.27 25.5293 141.68 26.4551 141.68 27.5684C141.68 29.3613 141 30.7148 139.641 31.6289C138.293 32.5312 136.348 32.9883 133.805 33H124.295ZM130.236 25.248V28.4648H133.699C134.438 28.4648 134.965 28.3359 135.281 28.0781C135.598 27.8203 135.756 27.4277 135.756 26.9004C135.756 25.8457 135.146 25.2949 133.928 25.248H130.236ZM130.236 21.5918H132.68C133.395 21.5918 133.893 21.4746 134.174 21.2402C134.467 20.9941 134.613 20.6367 134.613 20.168C134.613 19.5586 134.438 19.1309 134.086 18.8848C133.734 18.6387 133.189 18.5156 132.451 18.5156H130.236V21.5918Z" fill="#FFB340"/>
<path d="M17.0371 43.4062L22.75 61.2129L28.4453 43.4062H36.5664V69H30.3789V63.0234L30.9766 50.7891L24.7891 69H20.7109L14.5059 50.7715L15.1035 63.0234V69H8.93359V43.4062H17.0371ZM39.4844 59.3145C39.4844 57.416 39.8535 55.7285 40.5918 54.252C41.3301 52.7637 42.3906 51.6211 43.7734 50.8242C45.1562 50.0273 46.7793 49.6289 48.6426 49.6289C51.4902 49.6289 53.7344 50.5137 55.375 52.2832C57.0156 54.041 57.8359 56.4375 57.8359 59.4727V59.6836C57.8359 62.6484 57.0098 65.0039 55.3574 66.75C53.7168 68.4844 51.4902 69.3516 48.6777 69.3516C45.9707 69.3516 43.7969 68.543 42.1562 66.9258C40.5156 65.2969 39.6309 63.0938 39.502 60.3164L39.4844 59.3145ZM45.4082 59.6836C45.4082 61.4414 45.6836 62.7305 46.2344 63.5508C46.7852 64.3711 47.5996 64.7812 48.6777 64.7812C50.7871 64.7812 51.8652 63.1582 51.9121 59.9121V59.3145C51.9121 55.9043 50.8223 54.1992 48.6426 54.1992C46.6621 54.1992 45.5898 55.6699 45.4258 58.6113L45.4082 59.6836ZM76.5742 54.5156H70.5801V69H64.6211V54.5156H58.7148V49.9805H76.5742V54.5156ZM77.5234 59.3145C77.5234 57.416 77.8926 55.7285 78.6309 54.252C79.3691 52.7637 80.4297 51.6211 81.8125 50.8242C83.1953 50.0273 84.8184 49.6289 86.6816 49.6289C89.5293 49.6289 91.7734 50.5137 93.4141 52.2832C95.0547 54.041 95.875 56.4375 95.875 59.4727V59.6836C95.875 62.6484 95.0488 65.0039 93.3965 66.75C91.7559 68.4844 89.5293 69.3516 86.7168 69.3516C84.0098 69.3516 81.8359 68.543 80.1953 66.9258C78.5547 65.2969 77.6699 63.0938 77.541 60.3164L77.5234 59.3145ZM83.4473 59.6836C83.4473 61.4414 83.7227 62.7305 84.2734 63.5508C84.8242 64.3711 85.6387 64.7812 86.7168 64.7812C88.8262 64.7812 89.9043 63.1582 89.9512 59.9121V59.3145C89.9512 55.9043 88.8613 54.1992 86.6816 54.1992C84.7012 54.1992 83.6289 55.6699 83.4648 58.6113L83.4473 59.6836ZM116.143 59.6309C116.143 62.584 115.475 64.9453 114.139 66.7148C112.814 68.4727 111.021 69.3516 108.76 69.3516C107.014 69.3516 105.578 68.7129 104.453 67.4355V76.3125H98.5293V49.9805H104.066L104.242 51.7383C105.379 50.332 106.873 49.6289 108.725 49.6289C111.068 49.6289 112.891 50.4961 114.191 52.2305C115.492 53.9531 116.143 56.3262 116.143 59.3496V59.6309ZM110.219 59.2617C110.219 55.8867 109.234 54.1992 107.266 54.1992C105.859 54.1992 104.922 54.7031 104.453 55.7109V63.1992C104.969 64.2539 105.918 64.7812 107.301 64.7812C109.188 64.7812 110.16 63.1523 110.219 59.8945V59.2617ZM126.812 64.7812C127.645 64.7812 128.289 64.5586 128.746 64.1133C129.203 63.6562 129.426 63.0234 129.414 62.2148H134.969C134.969 64.3008 134.219 66.0117 132.719 67.3477C131.23 68.6836 129.309 69.3516 126.953 69.3516C124.188 69.3516 122.008 68.4844 120.414 66.75C118.82 65.0156 118.023 62.6133 118.023 59.543V59.2969C118.023 57.375 118.375 55.6816 119.078 54.2168C119.793 52.7402 120.818 51.6094 122.154 50.8242C123.49 50.0273 125.072 49.6289 126.9 49.6289C129.373 49.6289 131.336 50.3145 132.789 51.6855C134.242 53.0566 134.969 54.9141 134.969 57.2578H129.414C129.414 56.2734 129.174 55.5176 128.693 54.9902C128.213 54.4629 127.568 54.1992 126.76 54.1992C125.225 54.1992 124.328 55.1777 124.07 57.1348C123.988 57.7559 123.947 58.6113 123.947 59.7012C123.947 61.6113 124.176 62.9355 124.633 63.6738C125.09 64.4121 125.816 64.7812 126.812 64.7812Z" fill="#3C3C3C"/>
<path d="M179.406 16.4062H155.757C154.683 16.4062 153.813 17.2766 153.813 18.3502C153.813 19.4237 154.683 20.2941 155.757 20.2941H165.861C163.729 21.6292 161.807 23.2689 160.156 25.1527H146.944C145.87 25.1528 145 26.0233 145 27.0968C145 28.1704 145.87 29.0407 146.944 29.0407H157.344C155.102 32.8442 153.813 37.2741 153.813 41.9999C153.813 47.4989 155.556 52.5982 158.519 56.7746H153.003C151.93 56.7746 151.059 57.645 151.059 58.7185C151.059 59.7921 151.93 60.6624 153.003 60.6624H161.912C163.124 61.7994 164.446 62.8196 165.861 63.7057H147.144C146.071 63.7057 145.201 64.576 145.201 65.6496C145.201 66.7231 146.071 67.5935 147.144 67.5935H179.406C193.519 67.5935 205 56.1122 205 41.9998C205 27.8875 193.519 16.4062 179.406 16.4062ZM179.406 63.7059C167.438 63.7059 157.701 53.9688 157.701 42.0001C157.701 30.0313 167.438 20.2942 179.406 20.2942C191.375 20.2942 201.112 30.0313 201.112 41.9999C201.112 53.9686 191.375 63.7059 179.406 63.7059Z" fill="#FFB340"/>
<path d="M179.405 26.1219C170.65 26.1219 163.527 33.2448 163.527 42.0001C163.527 47.2211 166.061 51.8614 169.963 54.7571C169.998 54.7873 170.034 54.8178 170.073 54.8456C170.116 54.8771 170.16 54.9065 170.205 54.9339C172.803 56.7868 175.979 57.878 179.405 57.878C182.832 57.878 186.008 56.7868 188.606 54.9339C188.651 54.9065 188.695 54.8771 188.738 54.8456C188.777 54.8176 188.812 54.7871 188.848 54.7571C192.75 51.8614 195.284 47.2212 195.284 42.0001C195.284 33.245 188.161 26.1219 179.405 26.1219ZM181.349 30.1683C185.143 30.7895 188.343 33.1966 190.055 36.4958L185.021 38.1315C184.147 36.8659 182.857 35.9098 181.349 35.4609V30.1683H181.349ZM182.34 41.9999C182.34 43.6183 181.024 44.9349 179.405 44.9349C177.787 44.9349 176.47 43.6184 176.47 41.9999C176.47 40.3816 177.787 39.065 179.405 39.065C181.024 39.065 182.34 40.3816 182.34 41.9999ZM177.461 30.1683V35.4609C175.954 35.9098 174.664 36.8659 173.789 38.1315L168.756 36.4958C170.468 33.1966 173.668 30.7894 177.461 30.1683ZM170.882 50.4242C168.74 48.2572 167.415 45.2805 167.415 41.9999C167.415 41.3856 167.462 40.782 167.551 40.1923L172.587 41.8285C172.585 41.8857 172.582 41.9424 172.582 41.9999C172.582 43.5581 173.109 44.995 173.991 46.145L170.882 50.4242ZM179.405 53.9901C177.472 53.9901 175.644 53.5296 174.025 52.7129L177.134 48.433C177.845 48.6847 178.609 48.8231 179.405 48.8231C180.202 48.8231 180.966 48.6847 181.676 48.433L184.786 52.7129C183.167 53.5293 181.339 53.9901 179.405 53.9901ZM187.929 50.4242L184.82 46.1451C185.702 44.9951 186.228 43.5582 186.228 42.0001C186.228 41.9425 186.226 41.8858 186.224 41.8286L191.259 40.1924C191.349 40.7821 191.396 41.3858 191.396 42.0001C191.396 45.2805 190.071 48.2571 187.929 50.4242Z" fill="#FFB340"/>
</svg>
