<svg width="24" height="21" viewBox="0 0 24 21" fill="none" xmlns="http://www.w3.org/2000/svg">
<path d="M17.82 15.01H16.27L13.12 12.15C15.01 11.53 16.13 10.57 16.66 9.98999V9.36999C16.01 9.48999 14.53 8.97999 15.15 8.67999C15.46 8.51999 15.64 8.22999 15.75 7.94999C15.69 7.77999 15.65 7.58999 15.64 7.39999L15.63 7.12999C15.59 7.13999 15.55 7.14999 15.51 7.14999C15.3 7.14999 15.12 6.97999 15.12 6.75999V5.96999C15.12 5.75999 15.3 5.57999 15.51 5.57999C15.52 5.57999 15.53 5.58999 15.54 5.58999L15.51 5.07999C15.44 3.67999 16.47 2.46999 17.83 2.46999C19.18 2.46999 20.21 3.67999 20.14 5.07999L20.11 5.58999C20.12 5.58999 20.13 5.57999 20.14 5.57999C20.35 5.57999 20.53 5.75999 20.53 5.96999V6.75999C20.53 6.97999 20.35 7.14999 20.14 7.14999C20.1 7.14999 20.06 7.13999 20.02 7.12999L20.01 7.39999C19.99 7.61999 19.94 7.81999 19.87 8.01999C19.98 8.26999 20.15 8.52999 20.44 8.67999C21.04 8.96999 19.67 9.45999 18.99 9.37999V9.98999C19.55 10.6 20.75 11.64 22.84 12.26C22.84 12.26 24 13.17 24 14.09V15.01H17.82ZM13.95 8.45999C13.89 8.45999 13.82 8.43999 13.76 8.41999L13.74 8.84999C13.67 10.03 13.01 11.04 12.06 11.62V12.99C12.98 13.96 14.96 15.61 18.4 16.6C18.4 16.6 20.3 18.07 20.3 19.53V20.99H10.15H0V19.53C0 18.07 1.9 16.6 1.9 16.6C5.34 15.61 7.32 13.96 8.24 12.99V11.62C7.29 11.04 6.62 10.03 6.56 8.84999L6.53 8.41999C6.47 8.43999 6.41 8.45999 6.34 8.45999C5.99 8.45999 5.71 8.17999 5.71 7.82999V6.57999C5.71 6.22999 5.99 5.94999 6.34 5.94999C6.36 5.94999 6.38 5.95999 6.4 5.95999L6.35 5.14999C6.22 2.91999 7.92 0.98999 10.15 0.98999C12.38 0.98999 14.08 2.91999 13.95 5.14999L13.9 5.95999C13.92 5.95999 13.94 5.94999 13.95 5.94999C14.31 5.94999 14.59 6.22999 14.59 6.57999V7.82999C14.59 8.17999 14.31 8.45999 13.95 8.45999Z" fill="#FFB340"/>
</svg>
